<svg width="300" height="300" viewBox="0 0 300 300" fill="none" xmlns="http://www.w3.org/2000/svg">
<path d="M20.1147 117.542C-6.7049 90.6525 -6.7049 47.0563 20.1147 20.167C46.9343 -6.72233 90.4174 -6.72233 117.237 20.167L279.108 182.458C305.927 209.348 305.927 252.944 279.108 279.833C252.288 306.722 208.805 306.722 181.985 279.833L20.1147 117.542Z" fill="black"/>
<path d="M290.716 3.93785C293.245 3.93785 295.295 5.99299 295.295 8.52814L295.295 122.689C295.295 126.778 290.363 128.827 287.479 125.935L173.614 11.774C170.73 8.88225 172.772 3.93786 176.851 3.93786L290.716 3.93785Z" fill="black"/>
<path d="M8.50603 296.062C5.97745 296.062 3.92764 294.007 3.92764 291.472L3.92763 177.311C3.92763 173.222 8.85921 171.174 11.7434 174.065L125.608 288.226C128.493 291.118 126.45 296.062 122.371 296.062L8.50603 296.062Z" fill="black"/>
</svg>
