<svg width="650" height="300" viewBox="0 0 650 300" fill="none" xmlns="http://www.w3.org/2000/svg">
<path d="M20.1147 117.542C-6.7049 90.6524 -6.7049 47.0563 20.1147 20.167C46.9343 -6.72232 90.4174 -6.72232 117.237 20.167L279.108 182.458C305.927 209.348 305.927 252.944 279.108 279.833C252.288 306.722 208.805 306.722 181.985 279.833L20.1147 117.542Z" fill="white"/>
<path d="M290.716 3.93785C293.245 3.93785 295.295 5.99299 295.295 8.52814L295.295 122.689C295.295 126.778 290.363 128.826 287.479 125.935L173.614 11.774C170.73 8.88225 172.772 3.93786 176.851 3.93786L290.716 3.93785Z" fill="white"/>
<path d="M8.50603 296.062C5.97745 296.062 3.92764 294.007 3.92764 291.472L3.92763 177.311C3.92763 173.222 8.85921 171.174 11.7434 174.065L125.608 288.226C128.492 291.118 126.45 296.062 122.371 296.062L8.50603 296.062Z" fill="white"/>
<path d="M545.359 202.672C557.177 202.672 564.579 207.844 564.579 215.269C564.579 220.573 561.333 223.756 556.787 223.756C553.151 223.756 550.813 222.297 549.255 218.717C547.826 215.534 547.697 211.424 546.008 209.037C545.229 208.905 544.58 208.772 543.93 208.772C533.541 208.772 527.437 216.993 527.437 230.783C527.437 232.109 527.437 233.568 527.567 235.292H543.281V247.093H527.957V281.834C527.957 291.514 530.034 293.237 543.281 293.768V298.144H502.632V293.768C513.022 293.237 514.45 291.779 514.45 282.497V247.093H502.632V242.187L514.45 236.087C515.359 215.269 526.788 202.672 545.359 202.672Z" fill="white"/>
<path d="M501.112 259.955H461.372V262.607C461.372 276.397 468.775 285.281 480.593 285.281C487.995 285.281 493.58 281.569 496.177 275.734L501.112 277.458C498.125 292.574 490.463 300 476.826 300C459.554 300 448.645 287.403 448.645 268.044C448.645 247.226 459.424 233.7 477.346 233.7C492.8 233.7 501.372 243.248 501.112 259.955ZM475.917 239.667C468.905 239.667 463.97 244.574 462.151 253.723H486.956C486.956 244.971 483.58 239.667 475.917 239.667Z" fill="white"/>
<path d="M445.148 283.16L448.265 286.077C443.33 294.829 438.395 299.47 429.823 299.47C419.564 299.47 412.681 292.707 412.681 280.243V247.093H401.642V240.596C411.382 239.27 417.356 233.435 419.304 224.154H426.187V235.292H444.369V247.093H426.187V276.53C426.187 284.088 429.434 287.668 435.018 287.668C439.044 287.668 442.291 285.945 445.148 283.16Z" fill="white"/>
<path d="M375.453 300C368.44 300 361.297 298.409 355.713 295.624L355.063 277.591H361.946C363.505 288.331 368.829 293.635 376.492 293.635C382.725 293.635 386.751 290.718 386.751 285.812C386.751 281.303 384.024 278.784 377.271 275.734L368.57 271.889C359.219 267.778 355.063 261.414 355.063 252.795C355.063 240.861 364.544 233.7 378.959 233.7C385.842 233.7 392.855 235.292 398.439 238.076L399.089 253.855H392.076C390.777 245.104 386.232 240.065 377.79 240.065C371.557 240.065 367.401 243.115 367.401 247.889C367.401 252.397 370.128 254.916 376.881 257.966L385.582 261.811C394.803 265.922 399.089 271.889 399.089 280.64C399.089 292.574 389.868 300 375.453 300Z" fill="white"/>
<path d="M580.87 154.243V182.487C580.87 189.515 582.169 191.106 588.792 191.769V196.145H559.831V191.769C566.065 191.106 567.364 189.515 567.364 182.487V157.16C567.364 148.144 563.598 143.901 556.455 143.901C551.52 143.901 547.234 145.624 543.468 149.735V182.487C543.468 189.647 545.156 191.106 551 191.769V196.145H521.91V191.769C528.793 191.106 529.962 189.78 529.962 182.487V120.828C529.962 113.801 528.403 112.209 521.65 112.209V107.966L539.572 101.999H543.468V144.431C547.494 136.475 553.987 131.701 562.559 131.701C574.377 131.701 580.87 139.26 580.87 154.243Z" fill="white"/>
<path d="M519.473 181.161L522.59 184.078C517.655 192.83 512.72 197.471 504.148 197.471C493.889 197.471 487.006 190.708 487.006 178.244V145.094H475.967V138.597C485.707 137.271 491.681 131.436 493.629 122.154H500.512V133.293H518.694V145.094H500.512V174.531C500.512 182.089 503.759 185.669 509.343 185.669C513.369 185.669 516.616 183.945 519.473 181.161Z" fill="white"/>
<path d="M460.863 123.878C455.279 123.878 451.253 119.9 451.253 114.066C451.253 108.231 455.279 104.253 460.863 104.253C466.447 104.253 470.473 108.231 470.473 114.066C470.473 119.9 466.447 123.878 460.863 123.878ZM476.707 196.145H445.798V191.769C453.071 191.106 454.629 189.515 454.629 182.487V151.061C454.629 143.635 452.941 141.779 445.798 141.779V137.801L463.85 132.497H468.136V182.487C468.136 189.515 469.434 191.106 476.707 191.769V196.145Z" fill="white"/>
<path d="M424.413 137.668V133.292H446.62V137.668C443.114 137.933 441.036 139.922 437.919 148.144L420.257 196.41H411.426L398.959 162.332L385.582 196.41H376.621L359.609 149.735C356.102 140.055 354.933 138.066 350.778 137.668V133.292H378.829V137.668C374.803 137.933 372.725 139.657 372.725 142.972C372.725 144.033 372.985 145.359 373.505 147.215L384.543 181.161L395.582 153.05L393.245 146.818C391.037 140.718 389.089 137.933 385.453 137.668V133.292H413.504V137.668C409.089 137.801 407.27 139.392 407.27 142.707C407.27 144.563 407.92 147.348 409.088 150.663L418.958 181.028L430.776 148.409C431.556 146.022 431.945 144.166 431.945 142.574C431.945 139.127 429.478 137.801 424.413 137.668Z" fill="white"/>
<path d="M640.65 77.9682C640.65 88.0457 643.117 89.1065 650 89.7695V94.1453H617.793V89.7695C625.455 89.1065 627.143 88.0457 627.143 77.9682V18.8291C627.143 11.8013 625.585 10.2101 618.832 10.2101V5.96696L636.753 0H640.65V77.9682Z" fill="white"/>
<path d="M616.533 55.9567H576.793V58.6087C576.793 72.399 584.196 81.2831 596.014 81.2831C603.416 81.2831 609 77.5704 611.598 71.736L616.533 73.4598C613.546 88.5761 605.884 96.0016 592.247 96.0016C574.975 96.0016 564.066 83.4047 564.066 64.0453C564.066 43.2273 574.845 29.7021 592.767 29.7021C608.221 29.7021 616.792 39.2493 616.533 55.9567ZM591.338 35.6691C584.325 35.6691 579.39 40.5753 577.572 49.7246H602.377C602.377 40.9731 599.001 35.6691 591.338 35.6691Z" fill="white"/>
<path d="M542.264 35.669V31.2932H565.51V35.669C562.004 36.0668 559.406 38.321 556.419 46.0117L537.588 94.4103H528.627L509.926 48.3985C505.641 37.658 504.342 35.9342 500.446 35.669V31.2932H530.446V35.669C525.64 35.8016 522.913 37.3928 522.913 40.9729C522.913 42.4315 523.433 44.1553 524.212 46.4095L536.549 78.8962L548.887 46.9399C549.926 44.5531 550.315 42.4315 550.315 40.9729C550.315 37.2602 547.588 35.8016 542.264 35.669Z" fill="white"/>
<path d="M503.094 79.2942L507.12 80.355C505.692 90.1673 502.834 95.4713 494.263 95.4713C487.77 95.4713 483.095 91.8911 481.926 84.4655C478.16 92.0237 471.796 96.0016 464.653 96.0016C455.433 96.0016 449.459 90.6977 449.459 81.9462C449.459 73.1946 455.303 68.1559 466.861 64.3105L481.536 59.6695V53.57C481.536 42.962 477.121 37.6581 468.549 37.6581C464.264 37.6581 460.368 38.9841 458.03 40.5753C458.939 46.277 464.264 47.2052 464.264 52.7744C464.264 57.1501 460.627 60.7303 455.952 60.7303C450.757 60.7303 447.381 56.6197 447.381 50.918C447.381 39.3819 460.497 29.7021 473.874 29.7021C486.341 29.7021 495.042 36.3321 495.042 51.4484V79.8246C495.042 83.5373 496.081 85.1285 498.419 85.1285C500.627 85.1285 501.925 83.4047 503.094 79.2942ZM470.367 85.5263C474.134 85.5263 478.16 83.1395 481.536 78.1008V65.9017L472.965 69.084C466.471 71.4708 463.095 73.725 463.095 78.4986C463.095 82.8743 465.952 85.5263 470.367 85.5263Z" fill="white"/>
<path d="M436.061 29.7021C441.646 29.7021 445.931 33.4149 445.931 39.2493C445.931 45.0836 442.165 48.7964 437.49 48.7964C431.906 48.7964 431.516 42.4317 427.88 40.9731C424.893 44.288 421.516 49.7246 418.659 59.2717V80.4876C418.659 87.3827 420.867 89.1065 429.178 89.7695V94.1452H396.971V89.7695C403.984 89.1065 405.153 87.7805 405.153 80.4876V49.0616C405.153 41.6361 403.594 39.7797 396.971 39.7797V35.8017L414.503 30.4977H418.659V49.1942C421.776 40.1775 427.75 29.7021 436.061 29.7021Z" fill="white"/>
<path d="M394.413 79.1616L397.53 82.0788C392.595 90.8303 387.66 95.4713 379.089 95.4713C368.829 95.4713 361.946 88.7087 361.946 76.2444V43.0947H350.907V36.5973C360.647 35.2713 366.621 29.437 368.569 20.1551H375.452V31.2934H393.634V43.0947H375.452V72.5316C375.452 80.0898 378.699 83.67 384.283 83.67C388.309 83.67 391.556 81.9462 394.413 79.1616Z" fill="white"/>
</svg>
