<?xml version="1.0" encoding="UTF-8"?>
<svg width="825px" height="154px" viewBox="0 0 825 154" version="1.1" xmlns="http://www.w3.org/2000/svg" xmlns:xlink="http://www.w3.org/1999/xlink">
    <!-- Generator: Sketch 58 (84663) - https://sketch.com -->
    <title>Group 2</title>
    <desc>Created with Sketch.</desc>
    <defs>
        <polygon id="path-1" points="0 0 893.200019 0 0 113.300002"></polygon>
        <polygon id="path-3" points="0 0 893.200019 0 0 113.300002"></polygon>
    </defs>
    <g id="Page-1" stroke="none" stroke-width="1" fill="none" fill-rule="evenodd">
        <g id="yuabo-1-copy-4" transform="translate(-188.000000, -752.000000)">
            <g id="Group-2" transform="translate(153.000000, 732.000000)">
                <g id="Group" transform="translate(0.600006, 22.000010)">
                    <mask id="mask-2" fill="white">
                        <use xlink:href="#path-1"></use>
                    </mask>
                    <g id="Rectangle" transform="translate(446.600010, 56.650001) scale(1, -1) translate(-446.600010, -56.650001) "></g>
                    <path d="M61.8640013,91.300002 L82.7200018,91.300002 L82.7200018,17.5120004 L109.384002,17.5120004 L109.384002,-1.10000002 L35.2000008,-1.10000002 L35.2000008,17.5120004 L61.8640013,17.5120004 L61.8640013,91.300002 Z M242.176005,56.1880012 C253.396005,51.7000011 260.392006,41.6680009 260.392006,28.3360006 C260.392006,12.6280003 248.512005,-1.10000002 228.844005,-1.10000002 L186.604004,-1.10000002 L186.604004,91.300002 L207.328004,91.300002 L207.328004,58.6960013 L220.264005,58.6960013 L240.196005,91.300002 L264.484006,91.300002 L264.484006,89.980002 L242.176005,56.1880012 Z M207.328004,17.3800004 L227.788005,17.3800004 C235.840005,17.3800004 239.140005,22.9240005 239.140005,28.4680006 C239.140005,34.2760007 236.104005,40.2160009 227.788005,40.2160009 L207.328004,40.2160009 L207.328004,17.3800004 Z M391.336008,-1.10000002 L364.804008,-1.10000002 L333.124007,89.980002 L333.124007,91.300002 L355.036008,91.300002 L360.448008,73.7440016 L394.768009,73.7440016 L400.180009,91.300002 L423.148009,91.300002 L423.148009,89.980002 L391.336008,-1.10000002 Z M366.124008,55.5280012 L377.344008,19.6240004 L377.872008,19.6240004 L389.092008,55.5280012 L366.124008,55.5280012 Z M515.54801,91.300002 L540.496012,91.300002 L573.100012,0.220000005 L573.100012,-1.10000002 L549.076012,-1.10000002 L528.088011,66.6160014 L527.560011,66.6160014 L506.176011,-1.10000002 L482.54801,-1.10000002 L482.54801,0.220000005 L515.54801,91.300002 Z M649.660014,91.300002 L715.660014,91.300002 L715.660014,72.9520016 L670.384015,72.9520016 L670.384015,52.8880011 L711.568015,52.8880011 L711.568015,34.4080007 L670.384015,34.4080007 L670.384015,17.3800004 L715.660014,17.3800004 L715.660014,-1.10000002 L649.660014,-1.10000002 L649.660014,91.300002 Z M796.180017,91.300002 L796.180017,-1.10000002 L816.904018,-1.10000002 L816.904018,72.8200016 L858.880019,72.8200016 L858.880019,91.300002 L796.180017,91.300002 Z" id="TRAVEL" fill="#FFFFFF" fill-rule="nonzero" mask="url(#mask-2)"></path>
                </g>
                <g id="Group" transform="translate(0.600006, 0.000010)">
                    <mask id="mask-4" fill="white">
                        <use xlink:href="#path-3"></use>
                    </mask>
                    <g id="Rectangle" transform="translate(446.600010, 56.650001) scale(-1, 1) translate(-446.600010, -56.650001) "></g>
                    <path d="M61.8640013,113.300002 L82.7200018,113.300002 L82.7200018,39.5120009 L109.384002,39.5120009 L109.384002,20.9000005 L35.2000008,20.9000005 L35.2000008,39.5120009 L61.8640013,39.5120009 L61.8640013,113.300002 Z M242.176005,78.1880017 C253.396005,73.7000016 260.392006,63.6680014 260.392006,50.3360011 C260.392006,34.6280008 248.512005,20.9000005 228.844005,20.9000005 L186.604004,20.9000005 L186.604004,113.300002 L207.328004,113.300002 L207.328004,80.6960017 L220.264005,80.6960017 L240.196005,113.300002 L264.484006,113.300002 L264.484006,111.980002 L242.176005,78.1880017 Z M207.328004,39.3800009 L227.788005,39.3800009 C235.840005,39.3800009 239.140005,44.924001 239.140005,50.4680011 C239.140005,56.2760012 236.104005,62.2160013 227.788005,62.2160013 L207.328004,62.2160013 L207.328004,39.3800009 Z M391.336008,20.9000005 L364.804008,20.9000005 L333.124007,111.980002 L333.124007,113.300002 L355.036008,113.300002 L360.448008,95.7440021 L394.768009,95.7440021 L400.180009,113.300002 L423.148009,113.300002 L423.148009,111.980002 L391.336008,20.9000005 Z M366.124008,77.5280017 L377.344008,41.6240009 L377.872008,41.6240009 L389.092008,77.5280017 L366.124008,77.5280017 Z M515.54801,113.300002 L540.496012,113.300002 L573.100012,22.2200005 L573.100012,20.9000005 L549.076012,20.9000005 L528.088011,88.6160019 L527.560011,88.6160019 L506.176011,20.9000005 L482.54801,20.9000005 L482.54801,22.2200005 L515.54801,113.300002 Z M649.660014,113.300002 L715.660014,113.300002 L715.660014,94.9520021 L670.384015,94.9520021 L670.384015,74.8880016 L711.568015,74.8880016 L711.568015,56.4080012 L670.384015,56.4080012 L670.384015,39.3800009 L715.660014,39.3800009 L715.660014,20.9000005 L649.660014,20.9000005 L649.660014,113.300002 Z M796.180017,113.300002 L796.180017,20.9000005 L816.904018,20.9000005 L816.904018,94.8200021 L858.880019,94.8200021 L858.880019,113.300002 L796.180017,113.300002 Z" id="TRAVEL" fill="#FFFFFF" fill-rule="nonzero" mask="url(#mask-4)"></path>
                </g>
                <path d="M372.545033,152.546106 L376.981557,152.546106 L380.064565,165.720325 L383.207729,152.546106 L386.862221,152.546106 L390.09562,165.720325 L393.208706,152.546106 L397.585073,152.546106 L392.291323,173.300013 L388.381166,173.300013 L385.087612,160.110755 L381.598549,173.300013 L377.808705,173.300013 L372.545033,152.546106 Z M399.55519,173.300013 L399.55519,152.546106 L403.901479,152.546106 L403.901479,173.300013 L399.55519,173.300013 Z M406.157339,156.576575 L406.157339,152.546106 L422.204019,152.546106 L422.204019,156.576575 L416.383901,156.576575 L416.383901,173.300013 L412.052651,173.300013 L412.052651,156.576575 L406.157339,156.576575 Z M424.444839,173.300013 L424.444839,152.546106 L428.791128,152.546106 L428.791128,160.697278 L436.14523,160.697278 L436.14523,152.546106 L440.491519,152.546106 L440.491519,173.300013 L436.14523,173.300013 L436.14523,164.742786 L428.791128,164.742786 L428.791128,173.300013 L424.444839,173.300013 Z M459.591129,169.886145 C460.683973,169.886145 461.601347,169.645523 462.343277,169.16427 C463.085208,168.683018 463.456168,168.016293 463.456168,167.164075 C463.456168,166.642718 463.320818,166.236668 463.050113,165.945911 C462.605066,165.472457 461.507194,165.034781 459.756467,164.632871 L458.739774,164.406521 C457.170538,164.047933 456.065725,163.723891 455.425308,163.434387 C453.109281,162.361596 451.936246,160.652173 451.906168,158.306067 C451.906168,156.461266 452.612997,154.977427 454.026676,153.854504 C455.440355,152.731582 457.330245,152.170129 459.696402,152.170129 C462.052534,152.170129 463.922372,152.851893 465.305973,154.215442 C466.458973,155.34839 467.125698,156.792126 467.306168,158.546692 L462.884684,158.546692 C462.71424,157.343561 462.047515,156.53146 460.884488,156.110364 C460.493471,155.969999 459.942044,155.899817 459.230191,155.899817 C458.518339,155.909843 457.931821,156.065245 457.470621,156.366028 C457.009421,156.666811 456.698617,156.962576 456.538199,157.253333 C456.377782,157.544089 456.297574,157.90001 456.297574,158.321106 C456.297574,158.742202 456.49308,159.138227 456.884098,159.509192 C457.254292,159.842367 457.979008,160.12428 459.058264,160.354939 L459.335465,160.411536 C460.568674,160.662188 461.656489,160.912837 462.598941,161.163489 C464.363534,161.624689 465.671919,162.326505 466.524137,163.268958 C467.376355,164.21141 467.802457,165.479692 467.802457,167.073841 C467.802457,169.028929 467.035473,170.613027 465.501481,171.826185 C463.967488,173.039342 461.942248,173.650924 459.425699,173.661153 C456.90915,173.670976 454.908975,172.944096 453.425113,171.480286 C452.141773,170.216999 451.40988,168.637913 451.22941,166.742981 L455.72609,166.742981 C455.826351,167.635304 456.217362,168.382236 456.899137,168.983802 C457.580911,169.585367 458.478233,169.886145 459.591129,169.886145 Z M469.246207,156.576575 L469.246207,152.546106 L485.292887,152.546106 L485.292887,156.576575 L479.47277,156.576575 L479.47277,173.300013 L475.14152,173.300013 L475.14152,156.576575 L469.246207,156.576575 Z M487.533708,173.300013 L487.533708,152.546106 L502.347184,152.546106 L502.347184,156.516419 L491.879997,156.516419 L491.879997,160.802551 L500.722966,160.802551 L500.722966,164.772864 L491.879997,164.772864 L491.879997,169.3297 L502.347184,169.3297 L502.347184,173.300013 L487.533708,173.300013 Z M505.670817,173.300013 L505.670817,152.546106 L520.213591,152.546106 L520.213591,156.546497 L509.987028,156.546497 L509.987028,160.757434 L518.574333,160.757434 L518.574333,164.742786 L509.987028,164.742786 L509.987028,173.300013 L505.670817,173.300013 Z" id="WITHSTEF" fill="#FFFFFF" fill-rule="nonzero"></path>
            </g>
        </g>
    </g>
</svg>